HIERARCHY
ROOT hip
{
  OFFSET 0 0 0
  CHANNELS 6 Xposition Yposition Zposition Zrotation Yrotation Xrotation
  JOINT abdomen
  {
    OFFSET 0 20.6881 -0.73152
    CHANNELS 3 Zrotation Xrotation Yrotation
    JOINT chest
    {
      OFFSET 0 11.7043 -0.48768
      CHANNELS 3 Zrotation Xrotation Yrotation
      JOINT neck
      {
        OFFSET 0 22.1894 -2.19456
        CHANNELS 3 Zrotation Xrotation Yrotation
        JOINT head
        {
          OFFSET -0.24384 7.07133 1.2192
          CHANNELS 3 Zrotation Xrotation Yrotation
          JOINT leftEye
          {
            OFFSET 4.14528 8.04674 8.04672
            CHANNELS 3 Zrotation Xrotation Yrotation
            End Site
            {
              OFFSET 1 0 0
            }
          }
          JOINT rightEye
          {
            OFFSET -3.6576 8.04674 8.04672
            CHANNELS 3 Zrotation Xrotation Yrotation
            End Site
            {
              OFFSET 1 0 0
            }
          }
        }
      }
      JOINT rCollar
      {
        OFFSET -2.68224 19.2634 -4.8768
        CHANNELS 3 Zrotation Xrotation Yrotation
        JOINT rShldr
        {
          OFFSET -8.77824 -1.95073 1.46304
          CHANNELS 3 Zrotation Xrotation Yrotation
          JOINT rForeArm
          {
            OFFSET -28.1742 -1.7115 0.48768
            CHANNELS 3 Zrotation Xrotation Yrotation
            JOINT rHand
            {
              OFFSET -22.5879 0.773209 7.07136
              CHANNELS 3 Zrotation Xrotation Yrotation
              JOINT rThumb1
              {
                OFFSET -1.2192 -0.487915 3.41376
                CHANNELS 3 Zrotation Xrotation Yrotation
                JOINT rThumb2
                {
                  OFFSET -3.37035 -0.52449 3.41376
                  CHANNELS 3 Zrotation Xrotation Yrotation
                  End Site
                  {
                    OFFSET -1.78271 -1.18214 1.43049
                  }
                }
              }
              JOINT rIndex1
              {
                OFFSET -7.75947 0.938293 5.60832
                CHANNELS 3 Zrotation Xrotation Yrotation
                JOINT rIndex2
                {
                  OFFSET -2.54057 -0.884171 1.56538
                  CHANNELS 3 Zrotation Xrotation Yrotation
                  End Site
                  {
                    OFFSET -1.62519 -0.234802 1.16502
                  }
                }
              }
              JOINT rMid1
              {
                OFFSET -8.24714 1.18213 3.41376
                CHANNELS 3 Zrotation Xrotation Yrotation
                JOINT rMid2
                {
                  OFFSET -3.10165 -0.590103 1.0647
                  CHANNELS 3 Zrotation Xrotation Yrotation
                  End Site
                  {
                    OFFSET -2.48547 -0.328903 0.83742
                  }
                }
              }
              JOINT rRing1
              {
                OFFSET -8.82822 0.546677 1.51678
                CHANNELS 3 Zrotation Xrotation Yrotation
                JOINT rRing2
                {
                  OFFSET -2.60934 -0.819778 -0.0198488
                  CHANNELS 3 Zrotation Xrotation Yrotation
                  End Site
                  {
                    OFFSET -2.33842 -0.294052 0.168128
                  }
                }
              }
              JOINT rPinky1
              {
                OFFSET -8.27202 -0.0477905 -0.4584
                CHANNELS 3 Zrotation Xrotation Yrotation
                JOINT rPinky2
                {
                  OFFSET -1.82734 -0.647385 -0.700984
                  CHANNELS 3 Zrotation Xrotation Yrotation
                  End Site
                  {
                    OFFSET -1.69225 -0.51767 -0.607171
                  }
                }
              }
            }
          }
        }
      }
      JOINT lCollar
      {
        OFFSET 2.68224 19.2634 -4.8768
        CHANNELS 3 Zrotation Xrotation Yrotation
        JOINT lShldr
        {
          OFFSET 8.77824 -1.95073 1.46304
          CHANNELS 3 Zrotation Xrotation Yrotation
          JOINT lForeArm
          {
            OFFSET 28.1742 -1.7115 0.48768
            CHANNELS 3 Zrotation Xrotation Yrotation
            JOINT lHand
            {
              OFFSET 22.5879 0.773209 7.07136
              CHANNELS 3 Zrotation Xrotation Yrotation
              JOINT lThumb1
              {
                OFFSET 1.2192 -0.487915 3.41376
                CHANNELS 3 Zrotation Xrotation Yrotation
                JOINT lThumb2
                {
                  OFFSET 3.37035 -0.52449 3.41376
                  CHANNELS 3 Zrotation Xrotation Yrotation
                  End Site
                  {
                    OFFSET 1.78271 -1.18214 1.43049
                  }
                }
              }
              JOINT lIndex1
              {
                OFFSET 7.75947 0.938293 5.60832
                CHANNELS 3 Zrotation Xrotation Yrotation
                JOINT lIndex2
                {
                  OFFSET 2.54057 -0.884171 1.56538
                  CHANNELS 3 Zrotation Xrotation Yrotation
                  End Site
                  {
                    OFFSET 1.62519 -0.234802 1.16502
                  }
                }
              }
              JOINT lMid1
              {
                OFFSET 8.24714 1.18213 3.41376
                CHANNELS 3 Zrotation Xrotation Yrotation
                JOINT lMid2
                {
                  OFFSET 3.10165 -0.590103 1.0647
                  CHANNELS 3 Zrotation Xrotation Yrotation
                  End Site
                  {
                    OFFSET 2.48547 -0.328903 0.83742
                  }
                }
              }
              JOINT lRing1
              {
                OFFSET 8.82822 0.546677 1.51678
                CHANNELS 3 Zrotation Xrotation Yrotation
                JOINT lRing2
                {
                  OFFSET 2.60934 -0.819778 -0.0198488
                  CHANNELS 3 Zrotation Xrotation Yrotation
                  End Site
                  {
                    OFFSET 2.33842 -0.294052 0.168128
                  }
                }
              }
              JOINT lPinky1
              {
                OFFSET 8.27202 -0.0477905 -0.4584
                CHANNELS 3 Zrotation Xrotation Yrotation
                JOINT lPinky2
                {
                  OFFSET 1.82734 -0.647385 -0.700984
                  CHANNELS 3 Zrotation Xrotation Yrotation
                  End Site
                  {
                    OFFSET 1.69225 -0.51767 -0.607171
                  }
                }
              }
            }
          }
        }
      }
    }
  }
  JOINT rButtock
  {
    OFFSET -8.77824 4.35084 1.2192
    CHANNELS 3 Zrotation Xrotation Yrotation
    JOINT rThigh
    {
      OFFSET 0 -1.70687 -2.19456
      CHANNELS 3 Zrotation Xrotation Yrotation
      JOINT rShin
      {
        OFFSET 0 -36.8199 0.73152
        CHANNELS 3 Zrotation Xrotation Yrotation
        JOINT rFoot
        {
          OFFSET 0.73152 -45.1104 -5.12064
          CHANNELS 3 Zrotation Xrotation Yrotation
          End Site
          {
            OFFSET -1.1221 -3.69964 12.103
          }
        }
      }
    }
  }
  JOINT lButtock
  {
    OFFSET 8.77824 4.35084 1.2192
    CHANNELS 3 Zrotation Xrotation Yrotation
    JOINT lThigh
    {
      OFFSET 0 -1.70687 -2.19456
      CHANNELS 3 Zrotation Xrotation Yrotation
      JOINT lShin
      {
        OFFSET 0 -36.8199 0.73152
        CHANNELS 3 Zrotation Xrotation Yrotation
        JOINT lFoot
        {
          OFFSET -0.73152 -45.1104 -5.12064
          CHANNELS 3 Zrotation Xrotation Yrotation
          End Site
          {
            OFFSET 1.1221 -3.69964 12.103
          }
        }
      }
    }
  }
}
MOTION
Frames:	4
Frame Time:	0.00833333
-1.75911 82.4855 48.0191 0.0 0.0 0.0 -4.35894 0.0062924 -0.117455 -1.20158 0.0324761 -0.207681 1.0591e-13 1.59028e-15 9.93923e-16 3.16242e-13 3.18055e-15 2.58265e-15 -0.0 0.0 0.0 -0.0 0.0 0.0 5.32278e-14 4.80849e-16 6.4605e-16 1.11292e-12 1.01504e-14 1.43125e-14 1.91016e-11 -5.39641e-12 1.27222e-14 2.18891e-10 7.55695e-12 2.2741e-12 5.16259e-10 4.68295e-12 4.91714e-12 8.91554e-10 8.08815e-12 8.46505e-12 5.16263e-10 4.68535e-12 4.90442e-12 7.73091 5.47488 0.417314 5.16259e-10 4.68277e-12 4.91714e-12 2.90554 0.965183 0.102902 5.16264e-10 4.68327e-12 4.91396e-12 10.2786 0.731801 0.0259123 5.16254e-10 4.68416e-12 4.9235e-12 2.22167 -0.733487 -0.20892 5.30261e-14 4.86673e-16 3.47873e-16 1.11094e-12 9.57272e-15 1.27222e-14 1.91502e-11 6.05578e-12 6.36111e-15 2.18839e-10 -3.91777e-12 2.29954e-12 5.16251e-10 4.64465e-12 4.9076e-12 8.91532e-10 8.01818e-12 8.46823e-12 5.16247e-10 4.6456e-12 4.9235e-12 -7.73091 5.47488 -0.417314 5.16251e-10 4.64441e-12 4.9076e-12 -2.90554 0.965183 -0.102902 5.16242e-10 4.6447e-12 4.91078e-12 -10.2786 0.731801 -0.0259123 5.16251e-10 4.64639e-12 4.90442e-12 -2.22167 -0.733487 0.20892 -2.03217e-16 0.0 -3.88251e-19 -2.88814 -1.94435 0.0304152 -0.00797278 -2.07874 -0.0650941 -0.422309 4.00217 0.127123 2.03217e-16 0.0 3.88251e-19 -3.72546 -11.2507 0.483807 -0.0143128 14.7725 -0.388793 0.544917 -3.54242 0.0125027
-3.71148 82.2333 46.3059 -7.819 -1.8542 7.1338 -2.59164 -1.51816 -0.0952559 -1.43106 -2.97316 -0.288325 -4.05377 4.67426 -4.15266 7.41956 -2.10718 -8.07925 -0.0 0.0 0.0 -0.0 0.0 0.0 6.40078e-14 2.33446e-14 1.2749e-14 23.0096 -4.04708 -3.57282 -2.49587 -0.925115 4.09847 0.516512 16.0635 1.95013 6.32109e-10 -1.08881e-10 7.7847e-12 1.08975e-09 -1.8822e-10 5.70391e-13 6.32112e-10 -1.08878e-10 7.77278e-12 7.73091 5.47488 0.417314 6.32108e-10 -1.0888e-10 7.78274e-12 2.90554 0.965183 0.102902 6.32113e-10 -1.0888e-10 7.78138e-12 10.2786 0.731801 0.0259123 6.32103e-10 -1.08879e-10 7.791e-12 2.22167 -0.733487 -0.20892 6.38017e-14 2.33518e-14 1.24337e-14 -23.0637 2.98967 2.68336 3.21848 -1.30689 -5.18262 -0.0848141 6.46783 -0.888212 1.21589e-10 -8.09721e-11 2.99724e-10 2.16323e-10 -1.32713e-10 5.23236e-10 1.21585e-10 -8.09707e-11 2.9974e-10 -7.73091 5.47488 -0.417314 1.2159e-10 -8.0972e-11 2.99724e-10 -2.90554 0.965183 -0.102902 1.2158e-10 -8.09721e-11 2.99727e-10 -10.2786 0.731801 -0.0259123 1.21589e-10 -8.09705e-11 2.9972e-10 -2.22167 -0.733487 0.20892 -2.03217e-16 0.0 -3.88251e-19 -1.2736 -2.13203 6.8737 0.00256877 -1.85861 0.0271484 -0.811471 1.32921 -5.88654 2.03217e-16 0.0 3.88251e-19 -3.83229 -9.50334 -10.7066 -0.0119609 14.0334 -0.297932 1.24099 -8.21469 13.3543
-3.71518 82.233 46.3026 -7.8321 -1.8658 7.1533 -0.721737 -3.12877 -0.0720288 -1.68326 -6.15105 -0.375019 -7.59581 9.53391 -8.63459 14.6242 -4.19479 -16.6556 -0.0 0.0 0.0 -0.0 0.0 0.0 7.72773e-14 5.11951e-14 2.59134e-14 46.7836 -8.261 -7.4059 -4.9914 -1.88763 8.43556 -0.332824 32.9692 4.59563 7.89178e-10 -2.36966e-10 -6.92169e-12 1.35789e-09 -4.08615e-10 -3.98377e-11 7.89181e-10 -2.36963e-10 -6.93281e-12 7.73091 5.47488 0.417314 7.89176e-10 -2.36963e-10 -6.92585e-12 2.90554 0.965183 0.102902 7.89182e-10 -2.36964e-10 -6.92526e-12 10.2786 0.731801 0.0259123 7.89171e-10 -2.36962e-10 -6.91551e-12 2.22167 -0.733487 -0.20892 7.70654e-14 5.12039e-14 2.5578e-14 -47.7496 6.12638 5.54425 6.36421 -2.65236 -10.6688 0.0490476 13.3045 -1.86622 -3.31079e-10 -1.87697e-10 6.22621e-10 -5.58499e-10 -3.09008e-10 1.0875e-09 -3.31082e-10 -1.87695e-10 6.22637e-10 -7.73091 5.47488 -0.417314 -3.31078e-10 -1.87697e-10 6.22622e-10 -2.90554 0.965183 -0.102902 -3.31087e-10 -1.87697e-10 6.22624e-10 -10.2786 0.731801 -0.0259123 -3.31079e-10 -1.87696e-10 6.22616e-10 -2.22167 -0.733487 0.20892 -2.03217e-16 0.0 -3.88251e-19 0.481743 -2.29039 14.1092 0.0129363 -1.62576 0.124616 -1.82844 -1.44848 -12.2441 2.03217e-16 0.0 3.88251e-19 -3.20646 -7.39895 -22.4137 -0.0068615 13.2519 -0.202866 4.29221 -12.0878 27.836
-3.71903 82.2324 46.2999 -7.8454 -1.8843 7.1673 0.946524 -4.56708 -0.050918 -1.9158 -8.98426 -0.454019 -10.0961 13.7242 -12.7875 20.5273 -5.82075 -24.3549 -0.0 0.0 0.0 -0.0 0.0 0.0 8.55679e-14 6.9072e-14 3.69549e-14 67.4961 -11.9505 -10.9314 -7.09357 -2.7186 12.3079 -3.08746 47.9094 8.4037 8.63809e-10 -3.36009e-10 1.35198e-11 1.48615e-09 -5.80836e-10 -1.52189e-11 8.63811e-10 -3.36005e-10 1.35095e-11 7.73091 5.47488 0.417314 8.63805e-10 -3.36005e-10 1.3514e-11 2.90554 0.965183 0.102902 8.63812e-10 -3.36006e-10 1.35162e-11 10.2786 0.731801 0.0259123 8.63801e-10 -3.36004e-10 1.3526e-11 2.22167 -0.733487 -0.20892 8.53529e-14 6.90821e-14 3.66055e-14 -70.0369 8.88987 8.13752 8.9545 -3.79257 -15.5788 0.377656 19.3843 -2.80691 -6.67736e-10 -2.52206e-10 8.89357e-10 -1.13409e-09 -4.14175e-10 1.55277e-09 -6.67737e-10 -2.52203e-10 8.89373e-10 -7.73091 5.47488 -0.417314 -6.67734e-10 -2.52205e-10 8.89358e-10 -2.90554 0.965183 -0.102902 -6.67744e-10 -2.52206e-10 8.8936e-10 -10.2786 0.731801 -0.0259123 -6.67735e-10 -2.52204e-10 8.89351e-10 -2.22167 -0.733487 0.20892 -2.03217e-16 0.0 -3.88251e-19 2.08343 -2.39112 20.5647 0.0215248 -1.41833 0.21157 -3.24908 -3.80173 -17.9493 2.03217e-16 0.0 3.88251e-19 -2.00996 -5.47407 -32.7911 -5.59033e-05 12.5549 -0.118061 8.67105 -13.9473 41.0757
